<?xml version="1.0" encoding="UTF-8"?>
<svg width="180px" height="38px" viewBox="0 0 180 38" version="1.1" xmlns="http://www.w3.org/2000/svg" xmlns:xlink="http://www.w3.org/1999/xlink">
    <title>next</title>
    <g id="Page-1" stroke="none" stroke-width="1" fill="none" fill-rule="evenodd">
        <g id="next" fill="#000000" fill-rule="nonzero">
            <path d="M119.616813,0.0420143768 L86.5815904,0.0420143768 L86.5815904,6.71767226 L110.615778,6.71767226 L74.0165746,36.4150532 L79.0938915,42.0001275 L119.616813,6.71767226 L119.616813,0.0420143768 Z M97.3270617,16.4440845 L97.3270617,22.8608436 L105.573308,16.4440845 L97.3270617,16.4440845 Z" id="Shape"></path>
            <polygon id="Path" points="0 0 0 42 63 42 75 32 75 24 70 28 70 37 6 37 6 6 57 6 57 16 63 11 63 0"></polygon>
            <path d="M77,6 L77,42 L133,42 L145,32 L145,25 L140,28 L140,37 L83,37 L83,6 L77,6 Z M106,16 L106,22 L125,22 L125,16 L106,16 Z" id="Shape"></path>
            <path d="M165,6 L178,6 C179.105,6 180,5.105 180,4 L180,0 L147,0 L147,42 L180,42 L180,38 C180,36.895 179.105,36 178,36 L165,36 C162.791,36 161,34.209 161,32 L161,10 C161,7.791 162.791,6 165,6 Z" id="Path"></path>
        </g>
    </g>
</svg> 